name Walk8.mot
datacolumns 19
datarows 20
range 0.79500000 0.89000000
endheader

                time	   L_ground_force_vx	   L_ground_force_vy	   L_ground_force_vz	   L_ground_force_px	   L_ground_force_py	   L_ground_force_pz	   R_ground_force_vx	   R_ground_force_vy	   R_ground_force_vz	   R_ground_force_px	   R_ground_force_py	   R_ground_force_pz	   L_ground_torque_x	   L_ground_torque_y	   L_ground_torque_z	   R_ground_torque_x	   R_ground_torque_y	   R_ground_torque_z	
          0.79500000	         -5.00330313	        107.36499898	         -8.81620945	          0.00028070	          0.00000000	          0.00192591	          0.00000001	         -0.00000008	         -0.00000001	         -0.00000000	          0.00000000	         -0.00000000	          0.00000000	          0.24320824	          0.00000000	          0.00000000	         -0.00000000	          0.00000000	
          0.80000000	         -8.73516495	        158.03842244	        -11.91446320	         -0.05437366	          0.00000000	         -0.00191890	          0.00000001	         -0.00000007	         -0.00000000	         -0.00000000	          0.00000000	         -0.00000000	          0.00000000	          0.39177778	          0.00000000	          0.00000000	         -0.00000000	          0.00000000	
          0.80500000	        -13.67195188	        211.07129446	        -15.02802054	         -0.10491367	          0.00000000	         -0.00545738	          0.00000001	         -0.00000003	         -0.00000000	          0.00000000	          0.00000000	          0.00000000	          0.00000000	          0.55581710	          0.00000000	          0.00000000	         -0.00000000	          0.00000000	
          0.81000000	        -19.83598938	        262.97304897	        -17.84238311	         -0.14864522	          0.00000000	         -0.00853666	          0.00000001	          0.00000002	          0.00000001	          0.00000000	          0.00000000	          0.00000000	          0.00000000	          0.72878666	          0.00000000	          0.00000000	         -0.00000000	          0.00000000	
          0.81500000	        -27.08431869	        310.86205268	        -19.99012614	         -0.18435122	          0.00000000	         -0.01112284	          0.00000001	          0.00000011	          0.00000002	          0.00000000	          0.00000000	          0.00000000	          0.00000000	          0.90515885	          0.00000000	          0.00000000	         -0.00000000	          0.00000000	
          0.82000000	        -35.07977836	        353.21449363	        -21.15676808	         -0.21188628	          0.00000000	         -0.01325055	          0.00000001	          0.00000023	          0.00000003	          0.00000000	          0.00000000	          0.00000000	          0.00000000	          1.07987624	          0.00000000	          0.00000000	         -0.00000000	          0.00000000	
          0.82500000	        -43.35013435	        389.43515295	        -21.17339854	         -0.23179934	          0.00000000	         -0.01498866	          0.00000000	          0.00000039	          0.00000005	          0.00000000	          0.00000000	          0.00000000	          0.00000000	          1.24691139	          0.00000000	          0.00000000	         -0.00000000	          0.00000000	
          0.83000000	        -51.42752003	        419.69966511	        -20.01993795	         -0.24503548	          0.00000000	         -0.01641802	         -0.00000001	          0.00000059	          0.00000007	          0.00000000	          0.00000000	          0.00000000	          0.00000000	          1.39983355	          0.00000000	          0.00000000	         -0.00000000	          0.00000000	
          0.83500000	        -59.02409883	        444.88515521	        -17.78280722	         -0.25271312	          0.00000000	         -0.01761685	         -0.00000002	          0.00000082	          0.00000009	          0.00000000	          0.00000000	          0.00000000	          0.00000000	          1.53303302	          0.00000000	          0.00000000	         -0.00000000	          0.00000000	
          0.84000000	        -66.12337271	        466.32032075	        -14.60941375	         -0.25597052	          0.00000000	         -0.01865205	         -0.00000004	          0.00000109	          0.00000011	          0.00000000	          0.00000000	          0.00000000	          0.00000000	          1.64186626	          0.00000000	          0.00000000	          0.00000000	          0.00000000	
          0.84500000	        -72.91244699	        485.48525137	        -10.67140687	         -0.25587286	          0.00000000	         -0.01957668	         -0.00000006	          0.00000138	          0.00000014	          0.00000000	          0.00000000	          0.00000000	          0.00000000	          1.72287026	          0.00000000	          0.00000000	          0.00000000	          0.00000000	
          0.85000000	        -79.60168669	        503.74421153	         -6.14172600	         -0.25336736	          0.00000000	         -0.02042700	         -0.00000009	          0.00000165	          0.00000016	          0.00000000	          0.00000000	          0.00000000	          0.00000000	          1.77406601	          0.00000000	          0.00000000	          0.00000001	          0.00000000	
          0.85500000	        -86.25868847	        522.14995103	         -1.19054353	         -0.24926903	          0.00000000	         -0.02122350	         -0.00000013	          0.00000188	          0.00000018	          0.00000000	          0.00000000	          0.00000000	          0.00000000	          1.79613879	          0.00000000	          0.00000000	          0.00000001	          0.00000000	
          0.86000000	        -92.74142685	        541.33228001	          4.01621931	         -0.24425902	          0.00000000	         -0.02197437	         -0.00000017	          0.00000199	          0.00000018	          0.00000000	          0.00000000	          0.00000000	          0.00000000	          1.79301899	          0.00000000	          0.00000000	          0.00000002	          0.00000000	
          0.86500000	        -98.73760810	        561.48314993	          9.31441060	         -0.23888903	          0.00000000	         -0.02267990	         -0.00000021	          0.00000193	          0.00000016	          0.00000000	          0.00000000	          0.00000000	          0.00000000	          1.77255565	          0.00000000	          0.00000000	          0.00000003	          0.00000000	
          0.87000000	       -103.86119630	        582.42783771	         14.53256106	         -0.23358686	          0.00000000	         -0.02333486	         -0.00000024	          0.00000160	          0.00000011	          0.00000000	          0.00000000	          0.00000000	          0.00000000	          1.74547331	          0.00000000	          0.00000000	          0.00000004	          0.00000000	
          0.87500000	       -107.75319582	        603.73494690	         19.49270971	         -0.22865962	          0.00000000	         -0.02393037	         -0.00000027	          0.00000088	          0.00000002	         -0.00000000	          0.00000000	         -0.00000000	          0.00000000	          1.72322964	          0.00000000	          0.00000000	          0.00000005	          0.00000000	
          0.88000000	       -110.15263123	        624.82979036	         24.03702411	         -0.22430287	          0.00000000	         -0.02445822	         -0.00000028	         -0.00000035	         -0.00000012	         -0.00000000	          0.00000000	         -0.00000000	          0.00000000	          1.71420101	          0.00000000	          0.00000000	          0.00000006	          0.00000000	
          0.88500000	       -110.92911767	        645.07717033	         28.06177174	         -0.22061708	          0.00000000	         -0.02491481	         -0.00000026	         -0.00000222	         -0.00000033	         -0.00000001	          0.00000000	         -0.00000000	          0.00000000	          1.72102029	          0.00000000	          0.00000000	          0.00000007	          0.00000000	
          0.89000000	       -110.08615530	        663.82285655	         31.53028742	         -0.21762459	          0.00000000	         -0.02530244	         -0.00000020	         -0.00000487	         -0.00000062	         -0.00000001	          0.00000000	         -0.00000000	          0.00000000	          1.74042206	          0.00000000	          0.00000000	          0.00000007	          0.00000000	
